<svg width="50" height="32" viewBox="0 0 50 32" fill="none" xmlns="http://www.w3.org/2000/svg">
<path d="M18.3378 13.9841C17.3541 13.9841 16.5568 14.7519 16.5568 15.6992C16.5568 16.6465 17.3541 17.4142 18.3378 17.4142C19.3215 17.4142 20.1188 16.6465 20.1188 15.6992C20.1188 14.7519 19.3215 13.9841 18.3378 13.9841Z" fill="#AF51DF"/>
<path d="M25.0659 13.9841C24.0822 13.9841 23.2849 14.7519 23.2849 15.6992C23.2849 16.6465 24.0822 17.4142 25.0659 17.4142C26.0496 17.4142 26.8469 16.6465 26.8469 15.6992C26.8469 14.7519 26.0496 13.9841 25.0659 13.9841Z" fill="#AF51DF"/>
<path d="M31.6622 13.9841C30.6785 13.9841 29.8812 14.7519 29.8812 15.6992C29.8812 16.6465 30.6785 17.4142 31.6622 17.4142C32.646 17.4142 33.4432 16.6465 33.4432 15.6992C33.4432 14.7519 32.646 13.9841 31.6622 13.9841Z" fill="#AF51DF"/>
<path d="M47.4718 11.5266C46.8272 11.184 46.1201 11.0221 45.3879 11.0159C45.294 11.0159 45.2189 11.0346 45.1188 11.0346C45.5506 12.4921 45.7821 14.0182 45.7821 15.6003C45.7821 17.1949 45.5443 18.721 45.1188 20.166C45.2126 20.1785 45.2877 20.1847 45.3879 20.1847C47.9224 20.1847 50 18.1292 50 15.5941C50 13.8687 49.03 12.3052 47.4718 11.5266Z" fill="#AF51DF"/>
<path d="M4.88127 20.1661C4.44946 18.7219 4.21792 17.1969 4.21792 15.6034C4.21792 14.0224 4.45572 12.4911 4.88127 11.047C4.77488 11.0345 4.68727 11.0283 4.58088 11.0159C4.52456 11.0159 4.48701 11.0159 4.4432 11.0283H4.38688C3.63592 11.0719 2.94753 11.2711 2.31547 11.6383C0.882383 12.4413 0 13.9601 0 15.5972C0 18.1306 2.07141 20.1847 4.61217 20.1847C4.70604 20.1847 4.78114 20.1723 4.88127 20.1661Z" fill="#AF51DF"/>
<path d="M29.3537 0H20.6526C12.0203 0 5.01324 7.01199 5.01324 15.6301C5.01324 24.2607 12.0266 31.2665 20.6526 31.2665H29.3475C37.9798 31.2665 44.9869 24.2545 44.9869 15.6301C44.9931 7.01199 37.9798 0 29.3537 0ZM37.7922 15.6426C37.7922 20.2923 34.0105 24.067 29.3662 24.067H26.2533L18.8774 28.348L20.8652 24.067H20.6526C16.0021 24.067 12.2266 20.286 12.2266 15.6426V15.6301C12.2266 10.9805 16.0083 7.20573 20.6526 7.20573H29.3725C34.023 7.20573 37.7985 10.9867 37.7985 15.6301V15.6426H37.7922Z" fill="#AF51DF"/>
</svg>
